<?xml version="1.0" encoding="utf-8"?>
<!-- Generator: Adobe Illustrator 17.0.0, SVG Export Plug-In . SVG Version: 6.00 Build 0)  -->
<!DOCTYPE svg PUBLIC "-//W3C//DTD SVG 1.1//EN" "http://www.w3.org/Graphics/SVG/1.1/DTD/svg11.dtd">
<svg version="1.1" id="Layer_1" xmlns="http://www.w3.org/2000/svg" xmlns:xlink="http://www.w3.org/1999/xlink" x="0px" y="0px"
	 width="512px" height="512px" viewBox="0 0 512 512" enable-background="new 0 0 512 512" xml:space="preserve">
<g id="Layer_2_1_">
	
		<linearGradient id="SVGID_1_" gradientUnits="userSpaceOnUse" x1="486.3957" y1="-249.8666" x2="486.3957" y2="258.4594" gradientTransform="matrix(1 1.723208e-04 1.723208e-04 -1 -230.9272 258.4166)">
		<stop  offset="0" style="stop-color:#FFFFFF"/>
		<stop  offset="0" style="stop-color:#94FFBF"/>
		<stop  offset="1" style="stop-color:#6AFFF4"/>
	</linearGradient>
	<path fill="url(#SVGID_1_)" d="M509.598,478.628c-0.003,16.449-13.341,29.783-29.79,29.78L31.05,508.328
		c-16.449-0.003-29.785-13.34-29.78-29.79L1.349,29.78C1.351,13.33,14.689-0.003,31.139,0l448.759,0.08
		c16.449,0.002,29.782,13.34,29.779,29.791L509.598,478.628z"/>
</g>
<g id="Layer_1_2_">
	<g id="Layer_1_1_">
		
			<linearGradient id="SVGID_2_" gradientUnits="userSpaceOnUse" x1="635.431" y1="528.656" x2="635.431" y2="272.755" gradientTransform="matrix(1 0 0 1 -380 -144)">
			<stop  offset="0" style="stop-color:#FFFFFF"/>
			<stop  offset="0" style="stop-color:#94FFBF"/>
			<stop  offset="1" style="stop-color:#6AFFF4"/>
		</linearGradient>
		<path fill="url(#SVGID_2_)" stroke="#FFFFFF" stroke-width="14" stroke-miterlimit="10" d="M340.732,192.73H170.131v127.951
			h170.602V192.73H340.732z M404.707,363.332h-63.975v21.324h85.3v-85.3h-21.325L404.707,363.332L404.707,363.332z M340.732,128.755
			v21.325h63.975v63.976h21.325v-85.301H340.732z M106.155,150.08h63.976v-21.325H84.83v85.301h21.325V150.08z M106.155,299.356
			H84.83v85.3h85.301v-21.324h-63.976L106.155,299.356L106.155,299.356z"/>
	</g>
</g>
</svg>
