<?xml version="1.0" encoding="utf-8"?>
<!-- Generator: Adobe Illustrator 17.0.0, SVG Export Plug-In . SVG Version: 6.00 Build 0)  -->
<!DOCTYPE svg PUBLIC "-//W3C//DTD SVG 1.1//EN" "http://www.w3.org/Graphics/SVG/1.1/DTD/svg11.dtd">
<svg version="1.1" id="Layer_1" xmlns="http://www.w3.org/2000/svg" xmlns:xlink="http://www.w3.org/1999/xlink" x="0px" y="0px"
	 width="512px" height="512px" viewBox="0 0 512 512" enable-background="new 0 0 512 512" xml:space="preserve">
<g id="Layer_2">
	
		<linearGradient id="SVGID_1_" gradientUnits="userSpaceOnUse" x1="527" y1="-221.5" x2="527" y2="290.5" gradientTransform="matrix(1 0 0 -1 -271 290.5)">
		<stop  offset="0" style="stop-color:#FFFFFF"/>
		<stop  offset="0" style="stop-color:#00ACBF"/>
		<stop  offset="0.6434" style="stop-color:#0577B1"/>
		<stop  offset="1" style="stop-color:#0857A8"/>
	</linearGradient>
	<path fill="url(#SVGID_1_)" d="M512,482c0,16.568-13.432,30-30,30H30c-16.568,0-30-13.432-30-30V30C0,13.432,13.432,0,30,0h452
		c16.568,0,30,13.432,30,30V482z"/>
</g>
<line fill="none" stroke="#FFFFFF" stroke-width="14" stroke-miterlimit="10" x1="117.25" y1="403.75" x2="117.25" y2="106.75"/>
<line fill="none" stroke="#FFFFFF" stroke-width="14" stroke-miterlimit="10" x1="115.25" y1="399.25" x2="157.25" y2="441.25"/>
<line fill="none" stroke="#FFFFFF" stroke-width="14" stroke-miterlimit="10" x1="79" y1="70.75" x2="121" y2="112.75"/>
<line fill="none" stroke="#FFFFFF" stroke-width="14" stroke-miterlimit="10" x1="155.5" y1="72.25" x2="113.5" y2="114.25"/>
<line fill="none" stroke="#FFFFFF" stroke-width="14" stroke-miterlimit="10" x1="210.897" y1="74.25" x2="151.5" y2="74.25"/>
<line fill="none" stroke="#FFFFFF" stroke-width="14" stroke-miterlimit="10" x1="85.897" y1="73.25" x2="26.5" y2="73.25"/>
<line fill="none" stroke="#FFFFFF" stroke-width="14" stroke-miterlimit="10" x1="210.897" y1="438.25" x2="151.5" y2="438.25"/>
<line fill="none" stroke="#FFFFFF" stroke-width="14" stroke-miterlimit="10" x1="83.897" y1="437.25" x2="24.5" y2="437.25"/>
<line fill="none" stroke="#FFFFFF" stroke-width="14" stroke-miterlimit="10" x1="119.25" y1="398.25" x2="77.25" y2="440.25"/>
</svg>
