<?xml version="1.0" encoding="utf-8"?>
<!-- Generator: Adobe Illustrator 16.0.0, SVG Export Plug-In . SVG Version: 6.00 Build 0)  -->
<!DOCTYPE svg PUBLIC "-//W3C//DTD SVG 1.1//EN" "http://www.w3.org/Graphics/SVG/1.1/DTD/svg11.dtd">
<svg version="1.1" id="Layer_1" xmlns="http://www.w3.org/2000/svg" xmlns:xlink="http://www.w3.org/1999/xlink" x="0px" y="0px"
	 width="512px" height="512px" viewBox="0 0 512 512" enable-background="new 0 0 512 512" xml:space="preserve">
<g id="Layer_2">
	
		<linearGradient id="SVGID_1_" gradientUnits="userSpaceOnUse" x1="355.2627" y1="-216.7808" x2="355.2627" y2="288.7798" gradientTransform="matrix(1 0 0 -1 -97.5 292)">
		<stop  offset="0" style="stop-color:#94EBFF"/>
		<stop  offset="1" style="stop-color:#BFC8FF"/>
	</linearGradient>
	<path fill="url(#SVGID_1_)" d="M512.299,496.932c0,6.544-5.343,11.85-11.931,11.85H15.157c-6.589,0-11.931-5.307-11.931-11.85
		V15.069c0-6.543,5.342-11.849,11.931-11.849h485.211c6.588,0,11.931,5.305,11.931,11.849V496.932z"/>
</g>
<g id="Layer_1_1_">
	
		<linearGradient id="SVGID_2_" gradientUnits="userSpaceOnUse" x1="353.501" y1="-113.812" x2="353.501" y2="185.812" gradientTransform="matrix(1 0 0 -1 -97.5 292)">
		<stop  offset="0" style="stop-color:#94EBFF"/>
		<stop  offset="1" style="stop-color:#BFC8FF"/>
	</linearGradient>
	
		<linearGradient id="SVGID_3_" gradientUnits="userSpaceOnUse" x1="193.7886" y1="36" x2="513.2129" y2="36" gradientTransform="matrix(1 0 0 -1 -97.5 292)">
		<stop  offset="0" style="stop-color:#FFFFFF"/>
		<stop  offset="0" style="stop-color:#FFFFFF"/>
		<stop  offset="1" style="stop-color:#FFFFFF"/>
	</linearGradient>
	<polygon fill="url(#SVGID_2_)" stroke="url(#SVGID_3_)" stroke-width="14" stroke-miterlimit="10" points="372.521,106.188 
		256,222.708 139.479,106.188 106.188,139.479 222.708,256 106.188,372.521 139.479,405.812 256,289.291 372.521,405.812 
		405.812,372.521 289.291,256 405.812,139.479 	"/>
</g>
</svg>
