<?xml version="1.0" encoding="utf-8"?>
<!-- Generator: Adobe Illustrator 16.0.0, SVG Export Plug-In . SVG Version: 6.00 Build 0)  -->
<!DOCTYPE svg PUBLIC "-//W3C//DTD SVG 1.1//EN" "http://www.w3.org/Graphics/SVG/1.1/DTD/svg11.dtd">
<svg version="1.1" xmlns="http://www.w3.org/2000/svg" xmlns:xlink="http://www.w3.org/1999/xlink" x="0px" y="0px" width="512px"
	 height="512px" viewBox="0 0 512 512" enable-background="new 0 0 512 512" xml:space="preserve">
<g id="Layer_2">
	<g id="Layer_2_1_">
		
			<linearGradient id="SVGID_1_" gradientUnits="userSpaceOnUse" x1="-421.0366" y1="8.6523" x2="-421.0367" y2="520.6694" gradientTransform="matrix(-1 -5.114377e-04 -5.114377e-04 1 -164.4706 -8.9818)">
			<stop  offset="0" style="stop-color:#FFFFFF"/>
			<stop  offset="0" style="stop-color:#94FFBF"/>
			<stop  offset="1" style="stop-color:#6AFFF4"/>
		</linearGradient>
		<path fill="url(#SVGID_1_)" d="M0.537,29.774C0.544,13.206,13.982-0.219,30.551-0.213L482.55,0.002
			c16.57,0.008,29.997,13.445,29.987,30.013l-0.214,452c-0.008,16.568-13.446,29.994-30.015,29.984l-452.001-0.213
			c-16.567-0.005-29.994-13.444-29.983-30.014L0.537,29.774z"/>
	</g>
</g>
<g id="Layer_1">
	<g>
		<linearGradient id="SVGID_2_" gradientUnits="userSpaceOnUse" x1="156.8335" y1="388.5" x2="156.8335" y2="303.166">
			<stop  offset="0" style="stop-color:#94FFBF"/>
			<stop  offset="1" style="stop-color:#6AFFF4"/>
		</linearGradient>
		
			<rect x="82.167" y="303.166" fill="url(#SVGID_2_)" stroke="#FFFFFF" stroke-width="14" stroke-miterlimit="10" width="149.333" height="85.334"/>
		<linearGradient id="SVGID_3_" gradientUnits="userSpaceOnUse" x1="252.8335" y1="388.5" x2="252.8335" y2="132.5005">
			<stop  offset="0" style="stop-color:#94FFBF"/>
			<stop  offset="1" style="stop-color:#6AFFF4"/>
		</linearGradient>
		<polygon fill="url(#SVGID_3_)" stroke="#FFFFFF" stroke-width="14" stroke-miterlimit="10" points="82.167,217.833 103.5,217.833 
			103.5,153.833 402.167,153.833 402.167,367.166 359.5,367.166 359.5,388.5 423.5,388.5 423.5,132.5 82.167,132.5 		"/>
		<linearGradient id="SVGID_4_" gradientUnits="userSpaceOnUse" x1="210.167" y1="388.5" x2="210.167" y2="239.1675">
			<stop  offset="0" style="stop-color:#94FFBF"/>
			<stop  offset="1" style="stop-color:#6AFFF4"/>
		</linearGradient>
		<polygon fill="url(#SVGID_4_)" stroke="#FFFFFF" stroke-width="14" stroke-miterlimit="10" points="82.167,281.834 103.5,281.834 
			103.5,260.5 316.833,260.5 316.833,367.166 252.833,367.166 252.833,388.5 338.167,388.5 338.167,239.167 82.167,239.167 		"/>
	</g>
</g>
</svg>
