<?xml version="1.0" encoding="utf-8"?>
<!-- Generator: Adobe Illustrator 16.0.0, SVG Export Plug-In . SVG Version: 6.00 Build 0)  -->
<!DOCTYPE svg PUBLIC "-//W3C//DTD SVG 1.1//EN" "http://www.w3.org/Graphics/SVG/1.1/DTD/svg11.dtd">
<svg version="1.1" id="Layer_1" xmlns="http://www.w3.org/2000/svg" xmlns:xlink="http://www.w3.org/1999/xlink" x="0px" y="0px"
	 width="512px" height="512px" viewBox="0 0 512 512" enable-background="new 0 0 512 512" xml:space="preserve">
<g id="Layer_2">
	
		<linearGradient id="SVGID_1_" gradientUnits="userSpaceOnUse" x1="353.5" y1="-218.3989" x2="353.5" y2="290.3989" gradientTransform="matrix(1 0 0 -1 -97.5 292)">
		<stop  offset="0" style="stop-color:#FFFFFF"/>
		<stop  offset="0" style="stop-color:#D2D2D2"/>
		<stop  offset="1" style="stop-color:#8E8E8E"/>
	</linearGradient>
	<path fill="url(#SVGID_1_)" d="M511.398,498.475c0,6.585-5.361,11.925-11.972,11.925H12.572c-6.611,0-11.972-5.341-11.972-11.925
		V13.526c0-6.585,5.36-11.925,11.972-11.925h486.854c6.61,0,11.972,5.339,11.972,11.925V498.475z"/>
</g>
<g id="Layer_1_1_">
	<g>
		<g>
			
				<linearGradient id="SVGID_2_" gradientUnits="userSpaceOnUse" x1="353.501" y1="-141.7046" x2="353.5009" y2="213.7031" gradientTransform="matrix(1 0 0 -1 -97.5 292)">
				<stop  offset="0" style="stop-color:#FFFFFF"/>
				<stop  offset="0" style="stop-color:#D2D2D2"/>
				<stop  offset="1" style="stop-color:#8E8E8E"/>
			</linearGradient>
			<path fill="url(#SVGID_2_)" stroke="#FFFFFF" stroke-width="14" stroke-miterlimit="10" d="M363.055,197.764l38.637-40.492
				l-51.407-53.863l-38.672,40.492c-6.139-3.369-12.541-6.125-19.235-8.338V78.297h-72.755v57.267
				c-6.692,2.213-13.097,4.969-19.271,8.338l-38.669-40.458l-51.407,53.828l38.67,40.494c-3.248,6.429-5.847,13.132-7.995,20.144
				H86.297v76.181h54.656c2.145,7.011,4.744,13.714,7.996,20.145l-38.67,40.492l51.438,53.864l38.636-40.49
				c6.175,3.368,12.542,6.089,19.271,8.336v57.268h72.753V376.47c6.694-2.245,13.098-5,19.237-8.368l38.671,40.49l51.438-53.864
				l-38.668-40.454c3.219-6.469,5.846-13.134,7.961-20.182h54.688V217.91h-54.686C368.901,210.898,366.271,204.195,363.055,197.764z
				 M255.982,332.167c-40.16,0-72.722-34.094-72.722-76.152c0-42.089,32.559-76.151,72.722-76.151
				c40.198,0,72.725,34.062,72.725,76.151C328.707,298.073,296.18,332.167,255.982,332.167z"/>
		</g>
	</g>
</g>
</svg>
