<?xml version="1.0" encoding="utf-8"?>
<!-- Generator: Adobe Illustrator 16.0.0, SVG Export Plug-In . SVG Version: 6.00 Build 0)  -->
<!DOCTYPE svg PUBLIC "-//W3C//DTD SVG 1.1//EN" "http://www.w3.org/Graphics/SVG/1.1/DTD/svg11.dtd">
<svg version="1.1" id="Layer_1" xmlns="http://www.w3.org/2000/svg" xmlns:xlink="http://www.w3.org/1999/xlink" x="0px" y="0px"
	 width="512px" height="512px" viewBox="0 0 512 512" enable-background="new 0 0 512 512" xml:space="preserve">
<g id="Layer_2">
	<g id="Layer_2_1_">
		
			<linearGradient id="SVGID_1_" gradientUnits="userSpaceOnUse" x1="353.502" y1="-220.106" x2="353.5019" y2="292.106" gradientTransform="matrix(1 0 0 -1 -97.5 292)">
			<stop  offset="0" style="stop-color:#FFFFFF"/>
			<stop  offset="0" style="stop-color:#A9FFBB"/>
			<stop  offset="1" style="stop-color:#54E4FF"/>
		</linearGradient>
		
			<linearGradient id="SVGID_2_" gradientUnits="userSpaceOnUse" x1="96.895" y1="35.9995" x2="610.1074" y2="35.9995" gradientTransform="matrix(1 0 0 -1 -97.5 292)">
			<stop  offset="0" style="stop-color:#FFFFFF"/>
			<stop  offset="0" style="stop-color:#336699"/>
			<stop  offset="1" style="stop-color:#6AFFF4"/>
		</linearGradient>
		<path fill="url(#SVGID_1_)" stroke="url(#SVGID_2_)" stroke-miterlimit="10" d="M0.107,29.881
			C0.114,13.312,13.553-0.113,30.122-0.106L482.12,0.109c16.57,0.008,29.997,13.445,29.987,30.013l-0.215,452
			c-0.008,16.568-13.445,29.994-30.015,29.984l-452.001-0.214C13.31,511.889-0.116,498.449-0.105,481.88L0.107,29.881z"/>
	</g>
</g>
<g id="Layer_1_1_">
	
		<linearGradient id="SVGID_3_" gradientUnits="userSpaceOnUse" x1="353.2725" y1="-134.5327" x2="353.2725" y2="206.9951" gradientTransform="matrix(1 0 0 -1 -97.5 292)">
		<stop  offset="0" style="stop-color:#FFFFFF"/>
		<stop  offset="0" style="stop-color:#A9FFBB"/>
		<stop  offset="1" style="stop-color:#54E4FF"/>
	</linearGradient>
	<polygon fill="url(#SVGID_3_)" stroke="#FFFFFF" stroke-width="14" stroke-miterlimit="10" points="298.679,127.769 
		256.061,85.005 213.297,127.625 234.644,127.661 234.461,234.389 127.734,234.208 127.771,212.862 85.007,255.481 127.626,298.245 
		127.661,276.896 234.388,277.08 234.208,383.808 212.864,383.771 255.481,426.533 298.244,383.915 276.898,383.882 277.08,277.152 
		383.809,277.333 383.772,298.68 426.537,256.061 383.917,213.297 383.883,234.642 277.151,234.46 277.333,127.735 	"/>
	<path fill="#FFFFFF" stroke="#000000" stroke-miterlimit="10" d="M346.5,26.5"/>
</g>
</svg>
