<?xml version="1.0" encoding="utf-8"?>
<!-- Generator: Adobe Illustrator 17.0.0, SVG Export Plug-In . SVG Version: 6.00 Build 0)  -->
<!DOCTYPE svg PUBLIC "-//W3C//DTD SVG 1.1//EN" "http://www.w3.org/Graphics/SVG/1.1/DTD/svg11.dtd">
<svg version="1.1"
	 id="svg1316" xmlns:dc="http://purl.org/dc/elements/1.1/" xmlns:cc="http://web.resource.org/cc/" xmlns:inkscape="http://www.inkscape.org/namespaces/inkscape" xmlns:svg="http://www.w3.org/2000/svg" xmlns:sodipodi="http://sodipodi.sourceforge.net/DTD/sodipodi-0.dtd" xmlns:rdf="http://www.w3.org/1999/02/22-rdf-syntax-ns#" sodipodi:version="0.32" sodipodi:docname="closeButton.svg" sodipodi:docbase="/home/yana/workspace/IPPISVN/src/net/java/sip/communicator/impl/gui/resources/buttons/src" inkscape:version="0.45.1" inkscape:export-xdpi="90.000000" inkscape:export-ydpi="90.000000" inkscape:export-filename="/home/yana/workspace/sip-communicator-1-0-draft/src/net/java/sip/communicator/impl/gui/resources/buttons/close.png" inkscape:output_extension="org.inkscape.output.svg.inkscape"
	 xmlns="http://www.w3.org/2000/svg" xmlns:xlink="http://www.w3.org/1999/xlink" x="0px" y="0px" width="16px" height="16px"
	 viewBox="0 0 16 16" enable-background="new 0 0 16 16" xml:space="preserve">
<sodipodi:namedview  inkscape:cy="4.161678" pagecolor="#ffffff" borderopacity="1.0" inkscape:zoom="19.324309" id="base" inkscape:cx="8" bordercolor="#666666" showgrid="true" inkscape:document-units="px" inkscape:grid-bbox="true" inkscape:window-y="0" inkscape:window-height="843" inkscape:current-layer="layer1" inkscape:pageopacity="0.0" inkscape:window-width="1432" inkscape:pageshadow="2" inkscape:window-x="0">
	</sodipodi:namedview>
<g id="layer1" inkscape:label="Layer 1" inkscape:groupmode="layer">
	
		<path id="rect3126" inkscape:export-xdpi="90.000000" inkscape:export-ydpi="90.000000" inkscape:export-filename="/home/yana/workspace/IPPISVN/src/net/java/sip/communicator/impl/gui/resources/lookandfeel/deleteRollover.png" fill="#231F20" d="
		M2.566,0.364h10.865c1.218,0,2.205,0.987,2.205,2.205v10.865c0,1.218-0.987,2.205-2.205,2.205H2.566
		c-1.218,0-2.205-0.987-2.205-2.205V2.57C0.361,1.352,1.348,0.364,2.566,0.364z"/>
	
		<path id="rect2038" inkscape:export-xdpi="90" inkscape:export-ydpi="90" inkscape:export-filename="/home/yana/workspace/IPPISVN/src/net/java/sip/communicator/impl/gui/resources/lookandfeel/deleteRollover.png" fill="#FFFFFF" d="
		M10.7,10.002L10.7,10.002c0.165,0,0.299,0.134,0.299,0.299v1.403c0,0.165-0.134,0.299-0.299,0.299l0,0
		c-0.165,0-0.299-0.134-0.299-0.299v-1.403C10.401,10.136,10.535,10.002,10.7,10.002z"/>
	
		<path id="rect10058" inkscape:export-xdpi="90" inkscape:export-ydpi="90" inkscape:export-filename="/home/yana/workspace/IPPISVN/src/net/java/sip/communicator/impl/gui/resources/lookandfeel/deleteRollover.png" fill="#FFFFFF" d="
		M3.561,1.732c-0.34-0.001-0.668,0.122-0.93,0.378L2.124,2.614c-0.524,0.513-0.52,1.33,0,1.847l3.55,3.525l-3.55,3.525
		c-0.52,0.517-0.524,1.376,0,1.889l0.508,0.504c0.524,0.513,1.341,0.475,1.859-0.042l3.55-3.525l3.466,3.483
		c0.52,0.517,1.337,0.513,1.859,0l0.508-0.504c0.524-0.513,0.52-1.33,0-1.847l-3.466-3.483l3.466-3.442
		c0.52-0.517,0.524-1.334,0-1.847l-0.508-0.504c-0.524-0.513-1.341-0.517-1.859,0L8.041,5.635L4.491,2.11
		C4.231,1.851,3.901,1.733,3.561,1.732z"/>
</g>
</svg>
