<?xml version="1.0" encoding="utf-8"?>
<!-- Generator: Adobe Illustrator 17.0.0, SVG Export Plug-In . SVG Version: 6.00 Build 0)  -->
<!DOCTYPE svg PUBLIC "-//W3C//DTD SVG 1.1//EN" "http://www.w3.org/Graphics/SVG/1.1/DTD/svg11.dtd">
<svg version="1.1"
	 id="svg1316" xmlns:dc="http://purl.org/dc/elements/1.1/" xmlns:cc="http://web.resource.org/cc/" xmlns:inkscape="http://www.inkscape.org/namespaces/inkscape" xmlns:svg="http://www.w3.org/2000/svg" xmlns:sodipodi="http://sodipodi.sourceforge.net/DTD/sodipodi-0.dtd" xmlns:rdf="http://www.w3.org/1999/02/22-rdf-syntax-ns#" inkscape:output_extension="org.inkscape.output.svg.inkscape" sodipodi:docname="closeButton.svg" sodipodi:docbase="/home/yana/workspace/IPPISVN/src/net/java/sip/communicator/impl/gui/resources/buttons/src" inkscape:version="0.45.1" sodipodi:version="0.32" inkscape:export-ydpi="90.000000" inkscape:export-filename="/home/yana/workspace/sip-communicator-1-0-draft/src/net/java/sip/communicator/impl/gui/resources/buttons/close.png" inkscape:export-xdpi="90.000000"
	 xmlns="http://www.w3.org/2000/svg" xmlns:xlink="http://www.w3.org/1999/xlink" x="0px" y="0px" width="16px" height="16px"
	 viewBox="0 0 16 16" enable-background="new 0 0 16 16" xml:space="preserve">
<sodipodi:namedview  inkscape:cx="8" inkscape:zoom="19.324309" borderopacity="1.0" bordercolor="#666666" showgrid="true" inkscape:cy="4.161678" pagecolor="#ffffff" id="base" inkscape:window-y="0" inkscape:window-x="0" inkscape:window-height="843" inkscape:window-width="1432" inkscape:document-units="px" inkscape:grid-bbox="true" inkscape:current-layer="layer1" inkscape:pageopacity="0.0" inkscape:pageshadow="2">
	</sodipodi:namedview>
<g id="layer1" inkscape:label="Layer 1" inkscape:groupmode="layer">
	
		<path id="rect3126" inkscape:export-ydpi="90.000000" inkscape:export-filename="/home/yana/workspace/IPPISVN/src/net/java/sip/communicator/impl/gui/resources/lookandfeel/deleteRollover.png" inkscape:export-xdpi="90.000000" fill="#231F20" d="
		M2.566,0.364h10.865c1.218,0,2.205,0.987,2.205,2.205v10.865c0,1.218-0.987,2.205-2.205,2.205H2.566
		c-1.218,0-2.205-0.987-2.205-2.205V2.57C0.361,1.352,1.348,0.364,2.566,0.364z"/>
	
		<path id="rect2038" inkscape:export-ydpi="90" inkscape:export-filename="/home/yana/workspace/IPPISVN/src/net/java/sip/communicator/impl/gui/resources/lookandfeel/deleteRollover.png" inkscape:export-xdpi="90" fill="#FFFFFF" d="
		M10.7,10.002L10.7,10.002c0.165,0,0.299,0.134,0.299,0.299v1.403c0,0.165-0.134,0.299-0.299,0.299l0,0
		c-0.165,0-0.299-0.134-0.299-0.299v-1.403C10.401,10.136,10.535,10.002,10.7,10.002z"/>
	
		<path id="rect10058" inkscape:export-ydpi="90" inkscape:export-filename="/home/yana/workspace/IPPISVN/src/net/java/sip/communicator/impl/gui/resources/lookandfeel/deleteRollover.png" inkscape:export-xdpi="90" fill="#FFFFFF" stroke="#474747" stroke-width="0.7161" stroke-linecap="round" stroke-linejoin="round" d="
		M4.712,3.358c-0.252-0.001-0.495,0.09-0.689,0.28L3.648,4.011c-0.388,0.38-0.385,0.985,0,1.368L6.277,7.99l-2.629,2.611
		c-0.385,0.383-0.388,1.019,0,1.399l0.376,0.373c0.388,0.38,0.993,0.352,1.377-0.031L8.03,9.731l2.567,2.58
		c0.385,0.383,0.99,0.38,1.377,0l0.376-0.373c0.388-0.38,0.385-0.985,0-1.368L9.783,7.99l2.567-2.549
		c0.385-0.383,0.388-0.988,0-1.368L11.974,3.7c-0.388-0.38-0.993-0.383-1.377,0L8.03,6.249L5.401,3.638
		C5.208,3.446,4.964,3.359,4.712,3.358z"/>
</g>
</svg>
