<?xml version="1.0" encoding="utf-8"?>
<!-- Generator: Adobe Illustrator 16.0.0, SVG Export Plug-In . SVG Version: 6.00 Build 0)  -->
<!DOCTYPE svg PUBLIC "-//W3C//DTD SVG 1.1//EN" "http://www.w3.org/Graphics/SVG/1.1/DTD/svg11.dtd">
<svg version="1.1" xmlns="http://www.w3.org/2000/svg" xmlns:xlink="http://www.w3.org/1999/xlink" x="0px" y="0px" width="512px"
	 height="512px" viewBox="0 0 512 512" enable-background="new 0 0 512 512" xml:space="preserve">
<g id="Layer_2">
	<linearGradient id="SVGID_1_" gradientUnits="userSpaceOnUse" x1="255.9995" y1="442.543" x2="255.9995" y2="67.458">
		<stop  offset="0" style="stop-color:#94EBFF"/>
		<stop  offset="1" style="stop-color:#BFC8FF"/>
	</linearGradient>
	<path fill="url(#SVGID_1_)" d="M443.542,433.752c0,4.854-3.937,8.791-8.791,8.791H77.248c-4.855,0-8.791-3.938-8.791-8.791V76.249
		c0-4.855,3.936-8.791,8.791-8.791h357.503c4.854,0,8.791,3.936,8.791,8.791V433.752z"/>
</g>
<g id="Layer_1">
	<linearGradient id="SVGID_2_" gradientUnits="userSpaceOnUse" x1="256.0005" y1="357.8125" x2="256.0005" y2="154.1885">
		<stop  offset="0" style="stop-color:#94EBFF"/>
		<stop  offset="1" style="stop-color:#BFC8FF"/>
	</linearGradient>
	<linearGradient id="SVGID_3_" gradientUnits="userSpaceOnUse" x1="150.6528" y1="256" x2="361.3477" y2="256">
		<stop  offset="0" style="stop-color:#FFFFFF"/>
		<stop  offset="0" style="stop-color:#FFFFFF"/>
		<stop  offset="1" style="stop-color:#FFFFFF"/>
	</linearGradient>
	<polygon fill="url(#SVGID_2_)" stroke="url(#SVGID_3_)" stroke-width="5" stroke-miterlimit="10" points="335.188,154.188 
		256,233.375 176.812,154.188 154.188,176.812 233.375,256 154.188,335.188 176.812,357.812 256,278.625 335.188,357.812 
		357.812,335.188 278.625,256 357.812,176.812 	"/>
</g>
</svg>
