<?xml version="1.0" encoding="utf-8"?>
<!-- Generator: Adobe Illustrator 16.0.0, SVG Export Plug-In . SVG Version: 6.00 Build 0)  -->
<!DOCTYPE svg PUBLIC "-//W3C//DTD SVG 1.1//EN" "http://www.w3.org/Graphics/SVG/1.1/DTD/svg11.dtd">
<svg version="1.1" id="Layer_1" xmlns="http://www.w3.org/2000/svg" xmlns:xlink="http://www.w3.org/1999/xlink" x="0px" y="0px"
	 width="512px" height="512px" viewBox="0 0 512 512" enable-background="new 0 0 512 512" xml:space="preserve">
<g id="Layer_2">
	
		<linearGradient id="SVGID_1_" gradientUnits="userSpaceOnUse" x1="353.5" y1="-184.6997" x2="353.5" y2="256.6997" gradientTransform="matrix(1 0 0 -1 -97.5 292)">
		<stop  offset="0" style="stop-color:#FFFFFF"/>
		<stop  offset="0" style="stop-color:#D2D2D2"/>
		<stop  offset="1" style="stop-color:#8E8E8E"/>
	</linearGradient>
	<path fill="url(#SVGID_1_)" d="M476.699,466.355c0,5.712-4.633,10.345-10.345,10.345H45.645c-5.713,0-10.345-4.634-10.345-10.345
		V45.646c0-5.713,4.632-10.345,10.345-10.345h420.709c5.712,0,10.345,4.632,10.345,10.345V466.355z"/>
</g>
<g id="Layer_1_1_">
	<g>
		<g>
			
				<linearGradient id="SVGID_2_" gradientUnits="userSpaceOnUse" x1="353.501" y1="-114.7046" x2="353.501" y2="186.7031" gradientTransform="matrix(1 0 0 -1 -97.5 292)">
				<stop  offset="0" style="stop-color:#FFFFFF"/>
				<stop  offset="0" style="stop-color:#D2D2D2"/>
				<stop  offset="1" style="stop-color:#8E8E8E"/>
			</linearGradient>
			<path fill="url(#SVGID_2_)" stroke="#FFFFFF" stroke-width="14" stroke-miterlimit="10" d="M351.068,206.612l34.312-34.34
				l-45.651-45.679l-34.342,34.34c-5.452-2.857-11.138-5.194-17.083-7.071v-48.566h-64.609v48.566
				c-5.943,1.876-11.631,4.213-17.114,7.071l-34.339-34.311l-45.652,45.649l34.341,34.341c-2.885,5.452-5.192,11.137-7.1,17.083
				h-48.533v64.606h48.537c1.904,5.945,4.213,11.63,7.1,17.084l-34.34,34.34l45.679,45.68l34.31-34.338
				c5.483,2.856,11.138,5.164,17.114,7.069v48.566h64.607v-48.539c5.945-1.904,11.632-4.24,17.084-7.097l34.342,34.338l45.678-45.68
				l-34.338-34.308c2.858-5.486,5.19-11.139,7.069-17.115h48.565v-64.607h-48.563C356.261,217.751,353.925,212.066,351.068,206.612z
				 M255.984,320.595c-35.664,0-64.58-28.914-64.58-64.582c0-35.694,28.914-64.58,64.58-64.58c35.697,0,64.583,28.886,64.583,64.58
				C320.566,291.681,291.681,320.595,255.984,320.595z"/>
		</g>
	</g>
</g>
</svg>
