<?xml version="1.0" encoding="utf-8"?>
<!-- Generator: Adobe Illustrator 16.0.0, SVG Export Plug-In . SVG Version: 6.00 Build 0)  -->
<!DOCTYPE svg PUBLIC "-//W3C//DTD SVG 1.1//EN" "http://www.w3.org/Graphics/SVG/1.1/DTD/svg11.dtd">
<svg version="1.1" id="Layer_1" xmlns="http://www.w3.org/2000/svg" xmlns:xlink="http://www.w3.org/1999/xlink" x="0px" y="0px"
	 width="512px" height="512px" viewBox="0 0 512 512" enable-background="new 0 0 512 512" xml:space="preserve">
<g id="Layer_2">
	
		<linearGradient id="SVGID_1_" gradientUnits="userSpaceOnUse" x1="353.5" y1="-185.0757" x2="353.5" y2="259.0747" gradientTransform="matrix(1 0 0 -1 -97.5 292)">
		<stop  offset="0" style="stop-color:#FFFFFF"/>
		<stop  offset="0" style="stop-color:#94FFBF"/>
		<stop  offset="1" style="stop-color:#6AFFF4"/>
	</linearGradient>
	<path fill="url(#SVGID_1_)" d="M478.075,466.666c0,5.748-4.662,10.41-10.41,10.41H44.334c-5.749,0-10.41-4.663-10.41-10.41V43.335
		c0-5.749,4.661-10.41,10.41-10.41h423.331c5.748,0,10.41,4.661,10.41,10.41V466.666z"/>
</g>
<g id="Layer_1_1_">
	
		<linearGradient id="SVGID_2_" gradientUnits="userSpaceOnUse" x1="353" y1="-76.9995" x2="353" y2="148" gradientTransform="matrix(1 0 0 -1 -97.5 292)">
		<stop  offset="0" style="stop-color:#FFFFFF"/>
		<stop  offset="0" style="stop-color:#94FFBF"/>
		<stop  offset="1" style="stop-color:#6AFFF4"/>
	</linearGradient>
	<path fill="url(#SVGID_2_)" stroke="#FFFFFF" stroke-width="14" stroke-miterlimit="10" d="M330.5,200.25h-150v112.5h150V200.25z
		 M386.75,350.25H330.5V369h75v-75h-18.75V350.25z M330.5,144v18.75h56.25V219h18.75v-75H330.5z M124.25,162.75h56.25V144h-75v75
		h18.75V162.75z M124.25,294H105.5v75h75v-18.75h-56.25V294z"/>
</g>
</svg>
