<?xml version="1.0" encoding="utf-8"?>
<!-- Generator: Adobe Illustrator 16.0.0, SVG Export Plug-In . SVG Version: 6.00 Build 0)  -->
<!DOCTYPE svg PUBLIC "-//W3C//DTD SVG 1.1//EN" "http://www.w3.org/Graphics/SVG/1.1/DTD/svg11.dtd">
<svg version="1.1" xmlns="http://www.w3.org/2000/svg" xmlns:xlink="http://www.w3.org/1999/xlink" x="0px" y="0px" width="512px"
	 height="512px" viewBox="0 0 512 512" enable-background="new 0 0 512 512" xml:space="preserve">
<g id="Layer_2">
	<linearGradient id="SVGID_1_" gradientUnits="userSpaceOnUse" x1="255.9995" y1="443.543" x2="255.9995" y2="68.458">
		<stop  offset="0" style="stop-color:#FFFFFF"/>
		<stop  offset="0" style="stop-color:#D2D2D2"/>
		<stop  offset="1" style="stop-color:#8E8E8E"/>
	</linearGradient>
	<path fill="url(#SVGID_1_)" d="M443.542,434.752c0,4.854-3.937,8.791-8.791,8.791H77.248c-4.855,0-8.791-3.938-8.791-8.791V77.249
		c0-4.855,3.936-8.791,8.791-8.791h357.503c4.854,0,8.791,3.936,8.791,8.791V434.752z"/>
</g>
<g id="Layer_1">
	<g>
		<g>
			<linearGradient id="SVGID_2_" gradientUnits="userSpaceOnUse" x1="255.9995" y1="364.6016" x2="255.9995" y2="147.3989">
				<stop  offset="0" style="stop-color:#FFFFFF"/>
				<stop  offset="0" style="stop-color:#D2D2D2"/>
				<stop  offset="1" style="stop-color:#8E8E8E"/>
			</linearGradient>
			<path fill="url(#SVGID_2_)" stroke="#FFFFFF" stroke-width="5" stroke-miterlimit="10" d="M324.509,220.41l24.726-24.746
				l-32.897-32.918l-24.748,24.746c-3.929-2.059-8.025-3.743-12.311-5.095v-34.998H232.72v34.998
				c-4.283,1.352-8.381,3.036-12.333,5.095l-24.746-24.725l-32.898,32.897l24.747,24.747c-2.079,3.929-3.742,8.026-5.116,12.311
				h-34.975v46.558h34.977c1.372,4.284,3.036,8.381,5.116,12.311l-24.746,24.747l32.918,32.918l24.724-24.746
				c3.952,2.059,8.027,3.723,12.333,5.095v34.998h46.559v-34.978c4.285-1.372,8.382-3.057,12.311-5.115l24.748,24.746l32.917-32.918
				l-24.746-24.724c2.059-3.953,3.741-8.027,5.095-12.334h34.998v-46.558h-34.998C328.252,228.437,326.567,224.34,324.509,220.41z
				 M255.989,302.55c-25.701,0-46.539-20.837-46.539-46.54c0-25.723,20.836-46.539,46.539-46.539
				c25.724,0,46.539,20.816,46.539,46.539C302.528,281.713,281.713,302.55,255.989,302.55z"/>
		</g>
	</g>
</g>
</svg>
