<?xml version="1.0" encoding="utf-8"?>
<!-- Generator: Adobe Illustrator 17.0.0, SVG Export Plug-In . SVG Version: 6.00 Build 0)  -->
<!DOCTYPE svg PUBLIC "-//W3C//DTD SVG 1.1//EN" "http://www.w3.org/Graphics/SVG/1.1/DTD/svg11.dtd">
<svg version="1.1"
	 id="svg1316" xmlns:dc="http://purl.org/dc/elements/1.1/" xmlns:cc="http://web.resource.org/cc/" xmlns:inkscape="http://www.inkscape.org/namespaces/inkscape" xmlns:svg="http://www.w3.org/2000/svg" xmlns:sodipodi="http://sodipodi.sourceforge.net/DTD/sodipodi-0.dtd" xmlns:rdf="http://www.w3.org/1999/02/22-rdf-syntax-ns#" sodipodi:version="0.32" sodipodi:docname="closeButton.svg" sodipodi:docbase="/home/yana/workspace/IPPISVN/src/net/java/sip/communicator/impl/gui/resources/buttons/src" inkscape:version="0.45.1" inkscape:export-xdpi="90.000000" inkscape:export-ydpi="90.000000" inkscape:export-filename="/home/yana/workspace/sip-communicator-1-0-draft/src/net/java/sip/communicator/impl/gui/resources/buttons/close.png" inkscape:output_extension="org.inkscape.output.svg.inkscape"
	 xmlns="http://www.w3.org/2000/svg" xmlns:xlink="http://www.w3.org/1999/xlink" x="0px" y="0px" width="16px" height="16px"
	 viewBox="0 0 16 16" enable-background="new 0 0 16 16" xml:space="preserve">
<sodipodi:namedview  inkscape:cy="4.161678" pagecolor="#ffffff" borderopacity="1.0" inkscape:zoom="19.324309" id="base" inkscape:cx="8" bordercolor="#666666" showgrid="true" inkscape:document-units="px" inkscape:grid-bbox="true" inkscape:window-y="0" inkscape:window-height="843" inkscape:current-layer="layer1" inkscape:pageopacity="0.0" inkscape:window-width="1432" inkscape:pageshadow="2" inkscape:window-x="0">
	</sodipodi:namedview>
<g id="layer1" inkscape:label="Layer 1" inkscape:groupmode="layer">
	
		<path id="rect3126" inkscape:export-xdpi="90.000000" inkscape:export-ydpi="90.000000" inkscape:export-filename="/home/yana/workspace/IPPISVN/src/net/java/sip/communicator/impl/gui/resources/lookandfeel/deleteRollover.png" fill="#231F20" d="
		M2.566,0.364h10.865c1.218,0,2.205,0.987,2.205,2.205v10.865c0,1.218-0.987,2.205-2.205,2.205H2.566
		c-1.218,0-2.205-0.987-2.205-2.205V2.57C0.361,1.352,1.348,0.364,2.566,0.364z"/>
	<g>
		<path fill="#FFFFFF" d="M14.009,12.659c-1.001,0.122-2.003,0.204-3.004,0.257C10.003,12.983,9.001,13.021,8,13.039
			c-1.001,0.016-2.003,0.037-3.004-0.013l-3.004-0.185l-0.247-0.015l0.015-0.218c0.135-2.026,0.079-4.052-0.041-6.078L1.703,6.278
			l0.289-0.02C3.994,6.116,5.997,6.07,8,6.028c2.003-0.057,4.006-0.039,6.009,0.05l0.471,0.021l-0.018,0.433
			c-0.042,1.013-0.072,2.026-0.15,3.039c-0.061,1.013-0.142,2.026-0.254,3.039l-0.005,0.044L14.009,12.659z M13.954,12.554
			c-0.109-0.995-0.19-1.989-0.249-2.984c-0.077-1.013-0.108-2.026-0.15-3.039l0.453,0.453C12.006,7.073,10.003,7.092,8,7.035
			c-2.003-0.042-4.006-0.089-6.009-0.23l0.274-0.274c-0.12,2.026-0.176,4.052-0.041,6.078l-0.233-0.233l3.004-0.185
			c1.001-0.05,2.003-0.029,3.004-0.013c1.001,0.019,2.003,0.056,3.004,0.124C11.988,12.354,12.971,12.436,13.954,12.554z"/>
	</g>
	<g>
		<path fill="#FFFFFF" d="M4.192,9.763c0.21-0.929,5.338-4.092,5.973-5.282c0.281-0.526-4.393,0.18-4.643,0.276
			c-0.815,0.31,5.576-3.258,8.254-2.534s0.489,6.131-0.326,6.531c-0.815,0.399-0.63-3.331-1.716-3.412
			c-1.086-0.081-4.633,5.55-4.633,5.55S3.982,10.692,4.192,9.763z"/>
		<path fill="#231F20" d="M4.146,9.744C4.313,9.346,4.67,9.043,4.972,8.763c0.308-0.295,0.635-0.566,0.952-0.849l1.914-1.679
			C8.456,5.671,9.113,5.1,9.605,4.52c0.073-0.073,0.096-0.135,0.144-0.198l0.016-0.023l0.008-0.012l0.004-0.006
			C9.76,4.328,9.821,4.17,9.741,4.384L9.75,4.345C9.745,4.322,9.713,4.539,9.782,4.614c0.15,0.205,0.156,0.124,0.135,0.143
			C9.821,4.735,9.592,4.736,9.404,4.739c-0.399,0.004-0.815,0.041-1.23,0.075C7.349,4.887,6.491,4.951,5.686,5.058
			C5.598,5.073,5.728,5.047,5.484,5.099C5.401,5.081,5.503,5.144,5.272,5.044C4.974,4.539,5.23,4.672,5.182,4.593
			c0.084-0.108,0.049-0.054,0.079-0.086l0.057-0.041l0.081-0.048l0.297-0.154l0.586-0.273c0.392-0.174,0.786-0.338,1.184-0.494
			c0.79-0.322,1.586-0.625,2.394-0.9c0.805-0.285,1.632-0.514,2.495-0.641c0.847-0.088,1.858-0.212,2.582,0.725
			c0.614,0.842,0.552,1.841,0.448,2.709c-0.124,0.889-0.385,1.735-0.767,2.551c-0.101,0.203-0.201,0.407-0.332,0.609
			c-0.137,0.201-0.244,0.411-0.603,0.647c0.119-0.037-0.179,0.062-0.151,0.052l-0.01,0.002l-0.019,0.004l-0.039,0.009
			c-0.035,0.005-0.032,0.013-0.098,0.016c-0.19,0.023-0.522-0.145-0.55-0.214c-0.166-0.172-0.226-0.312-0.284-0.438
			c-0.103-0.249-0.162-0.469-0.218-0.685l-0.285-1.225c-0.083-0.363-0.267-0.79-0.351-0.835c-0.004-0.007-0.01-0.024-0.002-0.007
			l0.012,0.002l0.006-0.005l0.001-0.002c0.056-0.003-0.123,0.004,0.126-0.007L11.8,5.867c-0.092,0.021-0.25,0.037-0.225,0.074
			c0.006,0.008-0.189,0.145-0.32,0.257c-0.284,0.265-0.559,0.561-0.835,0.868c-1.079,1.248-2.168,2.56-3.167,3.92l-0.071,0.097
			L7.09,11.069c-0.565-0.084-1.115-0.192-1.661-0.339c-0.271-0.077-0.542-0.166-0.798-0.294c-0.127-0.064-0.256-0.139-0.354-0.255
			c-0.058-0.05-0.091-0.121-0.119-0.196c-0.037-0.07-0.01-0.157-0.014-0.233l0-0.002L4.146,9.744z M4.241,9.779
			C4.249,9.837,4.225,9.9,4.258,9.952c0.024,0.056,0.048,0.111,0.101,0.153c0.084,0.094,0.205,0.163,0.327,0.219
			c0.244,0.118,0.512,0.189,0.783,0.239c0.538,0.112,1.098,0.145,1.644,0.15L6.95,10.796C7.785,9.31,8.598,7.81,9.671,6.441
			c0.262-0.347,0.562-0.673,0.887-0.998c0.196-0.155,0.309-0.314,0.696-0.499c0.195-0.099,0.26-0.088,0.372-0.12l0.019-0.004
			c0.255-0.013,0.082-0.002,0.145-0.003l0.02,0.004l0.082,0.018l0.164,0.047c0.117,0.032,0.189,0.09,0.267,0.15
			c0.321,0.249,0.408,0.506,0.522,0.739c0.09,0.231,0.159,0.455,0.216,0.674c0.11,0.436,0.193,0.856,0.275,1.252
			c0.042,0.196,0.09,0.387,0.143,0.531l0.037,0.088c0.012,0.025,0.008,0.002,0.003,0.014c0.01,0.021-0.025-0.028-0.091-0.055
			c-0.061-0.025-0.136-0.024-0.19-0.002c-0.016,0.01,0.04-0.005,0.057-0.007l0.039-0.007l0.02-0.004l0.01-0.002
			c0.035-0.01-0.259,0.082-0.135,0.042c-0.007-0.002,0.148-0.138,0.237-0.291c0.106-0.149,0.199-0.322,0.293-0.495
			c0.363-0.705,0.631-1.486,0.8-2.264c0.148-0.767,0.216-1.615-0.143-2.208c-0.075-0.175-0.202-0.233-0.301-0.364
			c-0.164-0.079-0.421-0.221-0.528-0.237c-0.371-0.094-0.782-0.107-1.191-0.083c-0.823,0.056-1.639,0.281-2.439,0.528
			C9.159,3.152,8.383,3.486,7.63,3.861C7.256,4.054,6.887,4.256,6.524,4.466L5.988,4.788L5.736,4.954L5.684,4.992
			c0,0-0.015,0.013-0.006,0.007C5.698,4.976,5.65,5.037,5.728,4.94C5.676,4.867,5.925,5.005,5.634,4.506
			C5.407,4.41,5.517,4.469,5.441,4.451c-0.142,0.025,0.087-0.04,0.104-0.043C6.403,4.2,7.227,4.048,8.085,3.94
			c0.428-0.05,0.856-0.087,1.304-0.1c0.234,0.002,0.434-0.007,0.752,0.066c0.079,0.043,0.194,0,0.407,0.289
			c0.074,0.1,0.064,0.341,0.052,0.344L10.59,4.577c-0.082,0.22-0.027,0.067-0.047,0.119l-0.007,0.011l-0.014,0.021l-0.029,0.042
			c-0.077,0.108-0.158,0.233-0.238,0.308C9.602,5.75,8.897,6.204,8.187,6.686L6.068,8.098C5.407,8.596,4.637,9.064,4.241,9.779z"/>
	</g>
</g>
</svg>
