<?xml version="1.0" encoding="utf-8"?>
<!-- Generator: Adobe Illustrator 16.0.0, SVG Export Plug-In . SVG Version: 6.00 Build 0)  -->
<!DOCTYPE svg PUBLIC "-//W3C//DTD SVG 1.1//EN" "http://www.w3.org/Graphics/SVG/1.1/DTD/svg11.dtd">
<svg version="1.1" xmlns="http://www.w3.org/2000/svg" xmlns:xlink="http://www.w3.org/1999/xlink" x="0px" y="0px" width="512px"
	 height="512px" viewBox="0 0 512 512" enable-background="new 0 0 512 512" xml:space="preserve">
<g id="Layer_2">
	<linearGradient id="SVGID_1_" gradientUnits="userSpaceOnUse" x1="255.9995" y1="443.543" x2="255.9995" y2="68.458">
		<stop  offset="0" style="stop-color:#FFFFFF"/>
		<stop  offset="0" style="stop-color:#F79157"/>
		<stop  offset="1" style="stop-color:#FF94A1"/>
	</linearGradient>
	<path fill="url(#SVGID_1_)" d="M443.542,434.752c0,4.854-3.937,8.791-8.791,8.791H77.248c-4.855,0-8.791-3.938-8.791-8.791V77.249
		c0-4.855,3.936-8.791,8.791-8.791h357.503c4.854,0,8.791,3.936,8.791,8.791V434.752z"/>
</g>
<g id="Layer_1">
	<g id="Send">
		
			<linearGradient id="SVGID_2_" gradientUnits="userSpaceOnUse" x1="353.5" y1="-91.9995" x2="353.5" y2="164" gradientTransform="matrix(1 0 0 -1 -97.5 292)">
			<stop  offset="0" style="stop-color:#FFFFFF"/>
			<stop  offset="0" style="stop-color:#F79157"/>
			<stop  offset="1" style="stop-color:#FF94BD"/>
		</linearGradient>
		<path fill="url(#SVGID_2_)" stroke="#FFFFFF" stroke-width="5" stroke-miterlimit="10" d="M128,128l73.141,256l73.141-51.203
			L329.141,384v-85.328L384,247.469L128,128z M292.578,298.672l-97.375-93.875l97.375,76.797V298.672z"/>
	</g>
</g>
</svg>
